<svg version="1.1" xmlns="http://www.w3.org/2000/svg" xmlns:xlink="http://www.w3.org/1999/xlink" width="736.84033203125" height="297"><defs/><g><g transform="translate(-310,-342) scale(1,1)"><rect fill="#C0C0C0" stroke="none" x="511" y="359" width="296" height="102" opacity="0.2"/></g><g transform="translate(-310,-342) scale(1,1)"><rect fill="#ffffff" stroke="none" x="504" y="352" width="296" height="102"/></g><g transform="translate(-310,-342) scale(1,1)"><path fill="none" stroke="#000000" d="M 504 352 L 800 352 L 800 454 L 504 454 L 504 352 Z Z" stroke-miterlimit="10"/></g><g transform="translate(-310,-342) scale(1,1)"><path fill="none" stroke="#000000" d="M 504 377 L 800 377" stroke-miterlimit="10"/></g><g transform="translate(-310,-342) scale(1,1)"><path fill="none" stroke="#000000" d="M 504 387 L 800 387" stroke-miterlimit="10"/></g><g transform="translate(-310,-342) scale(1,1)"><g><path fill="none" stroke="none"/><text fill="#000000" stroke="none" font-family="Arial" font-size="13px" font-style="italic" font-weight="bold" text-decoration="none" x="633.22998046875" y="370">Konto</text></g></g><g transform="translate(-310,-342) scale(1,1)"><g><path fill="none" stroke="none"/><text fill="#000000" stroke="none" font-family="Arial" font-size="13px" font-style="normal" font-weight="normal" text-decoration="none" x="509" y="403">+abheben(double): boolean</text></g></g><g transform="translate(-310,-342) scale(1,1)"><g><path fill="none" stroke="none"/><text fill="#000000" stroke="none" font-family="Arial" font-size="13px" font-style="italic" font-weight="normal" text-decoration="none" x="509" y="418">#pruefeAbheben(betrag: double): boolean</text></g></g><g transform="translate(-310,-342) scale(1,1)"><g><path fill="none" stroke="none"/><text fill="#000000" stroke="none" font-family="Arial" font-size="13px" font-style="normal" font-weight="normal" text-decoration="none" x="509" y="433">«hook»#kontoAenderung(betrag: double): double</text></g></g><g transform="translate(-310,-342) scale(1,1)"><rect fill="#C0C0C0" stroke="none" x="327" y="551" width="300.24951171875" height="72" opacity="0.2"/></g><g transform="translate(-310,-342) scale(1,1)"><rect fill="#ffffff" stroke="none" x="320" y="544" width="300.24951171875" height="72"/></g><g transform="translate(-310,-342) scale(1,1)"><path fill="none" stroke="#000000" d="M 320 544 L 620.24951171875 544 L 620.24951171875 616 L 320 616 L 320 544 Z Z" stroke-miterlimit="10"/></g><g transform="translate(-310,-342) scale(1,1)"><path fill="none" stroke="#000000" d="M 320 569 L 620.24951171875 569" stroke-miterlimit="10"/></g><g transform="translate(-310,-342) scale(1,1)"><path fill="none" stroke="#000000" d="M 320 579 L 620.24951171875 579" stroke-miterlimit="10"/></g><g transform="translate(-310,-342) scale(1,1)"><g><path fill="none" stroke="none"/><text fill="#000000" stroke="none" font-family="Arial" font-size="13px" font-style="normal" font-weight="bold" text-decoration="none" x="439.072021484375" y="562">Girokonto</text></g></g><g transform="translate(-310,-342) scale(1,1)"><g><path fill="none" stroke="none"/><text fill="#000000" stroke="none" font-family="Arial" font-size="13px" font-style="normal" font-weight="normal" text-decoration="none" x="325" y="595">#pruefeAbheben(betrag: double): boolean</text></g></g><g transform="translate(-310,-342) scale(1,1)"><g><path fill="none" stroke="none"/><text fill="#000000" stroke="none" font-family="Arial" font-size="13px" font-style="normal" font-weight="normal" text-decoration="none" x="325" y="610">#kontoAenderung(betrag: double): void</text></g></g><g transform="translate(-310,-342) scale(1,1)"><rect fill="#C0C0C0" stroke="none" x="719" y="551" width="324.84033203125" height="85" opacity="0.2"/></g><g transform="translate(-310,-342) scale(1,1)"><rect fill="#ffffff" stroke="none" x="712" y="544" width="324.84033203125" height="85"/></g><g transform="translate(-310,-342) scale(1,1)"><path fill="none" stroke="#000000" d="M 712 544 L 1036.84033203125 544 L 1036.84033203125 629 L 712 629 L 712 544 Z Z" stroke-miterlimit="10"/></g><g transform="translate(-310,-342) scale(1,1)"><path fill="none" stroke="#000000" d="M 712 569 L 1036.84033203125 569" stroke-miterlimit="10"/></g><g transform="translate(-310,-342) scale(1,1)"><path fill="none" stroke="#000000" d="M 712 579 L 1036.84033203125 579" stroke-miterlimit="10"/></g><g transform="translate(-310,-342) scale(1,1)"><g><path fill="none" stroke="none"/><text fill="#000000" stroke="none" font-family="Arial" font-size="13px" font-style="normal" font-weight="bold" text-decoration="none" x="844.443359375" y="562">Sparbuch</text></g></g><g transform="translate(-310,-342) scale(1,1)"><g><path fill="none" stroke="none"/><text fill="#000000" stroke="none" font-family="Arial" font-size="13px" font-style="normal" font-weight="normal" text-decoration="none" x="717" y="595">#pruefeAbheben(betrag: double): boolean</text></g></g><g transform="translate(-310,-342) scale(1,1)"><g><path fill="none" stroke="none"/><text fill="#000000" stroke="none" font-family="Arial" font-size="13px" font-style="normal" font-weight="normal" text-decoration="none" x="717" y="610">#kontoAenderung(betrag: double): void</text></g></g><g transform="translate(-310,-342) scale(1,1)"><path fill="none" stroke="#000000" d="M 822 543 L 715 455" stroke-miterlimit="10"/></g><g transform="translate(-310,-342) scale(1,1)"><path fill="#FFFFFF" stroke="none" d="M 736.0459992192963 461.40826941235946 L 715 455 L 725.3504380076614 474.4130995219609"/></g><g transform="translate(-310,-342) scale(1,1)"><path fill="none" stroke="#000000" d="M 736.0459992192963 461.40826941235946 L 715 455 L 725.3504380076614 474.4130995219609 L 736.0459992192963 461.40826941235946" stroke-miterlimit="10"/></g><g transform="translate(-310,-342) scale(1,1)"><path fill="none" stroke="#000000" d="M 508 543 L 599 455" stroke-miterlimit="10"/></g><g transform="translate(-310,-342) scale(1,1)"><path fill="#FFFFFF" stroke="none" d="M 590.2415461638795 475.18141438057665 L 599 455 L 578.5364229373284 463.0772528622113"/></g><g transform="translate(-310,-342) scale(1,1)"><path fill="none" stroke="#000000" d="M 590.2415461638795 475.18141438057665 L 599 455 L 578.5364229373284 463.0772528622113 L 590.2415461638795 475.18141438057665" stroke-miterlimit="10"/></g></g></svg>