<svg version="1.1" xmlns="http://www.w3.org/2000/svg" xmlns:xlink="http://www.w3.org/1999/xlink" width="620.69140625"
     height="262">
    <defs/>
    <g>
        <g>
            <rect fill="#C0C0C0" stroke="none" x="511" y="367" width="207.32958984375" height="80"
                  transform="matrix(1 0 0 1 -310 -350)" fill-opacity="0.2"/>
        </g>
        <g>
            <rect fill="#ffffff" stroke="none" x="504" y="360" width="207.32958984375" height="80"
                  transform="matrix(1 0 0 1 -310 -350)"/>
        </g>
        <g>
            <path fill="none" stroke="#000000" paint-order="fill stroke markers"
                  d=" M 194 10 L 401.32958984375 10 L 401.32958984375 90 L 194 90 L 194 10 Z Z" stroke-miterlimit="10"
                  stroke-dasharray=""/>
        </g>
        <g>
            <path fill="none" stroke="#000000" paint-order="fill stroke markers" d=" M 194 35 L 402.32958984375 35"
                  stroke-miterlimit="10" stroke-dasharray=""/>
        </g>
        <g>
            <path fill="none" stroke="#000000" paint-order="fill stroke markers" d=" M 194 45 L 402.32958984375 45"
                  stroke-miterlimit="10" stroke-dasharray=""/>
        </g>
        <g>
            <g>
                <path fill="none" stroke="none"/>
                <text fill="#000000" stroke="none" font-family="Arial" font-size="13px" font-style="normal"
                      font-weight="bold" text-decoration="undefined" x="608.164794921875" y="373.5" text-anchor="middle"
                      dominant-baseline="central" transform="matrix(1 0 0 1 -310 -350)">Konto
                </text>
            </g>
        </g>
        <g>
            <g>
                <path fill="none" stroke="none"/>
                <text fill="#000000" stroke="none" font-family="Arial" font-size="13px" font-style="normal"
                      font-weight="normal" text-decoration="undefined" x="509" y="406.5" text-anchor="start"
                      dominant-baseline="central" transform="matrix(1 0 0 1 -310 -350)">+abheben(double): boolean
                </text>
            </g>
        </g>
        <g>
            <g>
                <path fill="none" stroke="none"/>
                <text fill="#000000" stroke="none" font-family="Arial" font-size="13px" font-style="normal"
                      font-weight="normal" text-decoration="undefined" x="509" y="421.5" text-anchor="start"
                      dominant-baseline="central" transform="matrix(1 0 0 1 -310 -350)">#pruefeAbheben(double): boolean
                </text>
            </g>
        </g>
        <g>
            <rect fill="#C0C0C0" stroke="none" x="327" y="551" width="207.69140625" height="58"
                  transform="matrix(1 0 0 1 -310 -350)" fill-opacity="0.2"/>
        </g>
        <g>
            <rect fill="#ffffff" stroke="none" x="320" y="544" width="207.69140625" height="58"
                  transform="matrix(1 0 0 1 -310 -350)"/>
        </g>
        <g>
            <path fill="none" stroke="#000000" paint-order="fill stroke markers"
                  d=" M 10 194 L 217.69140625 194 L 217.69140625 252 L 10 252 L 10 194 Z Z" stroke-miterlimit="10"
                  stroke-dasharray=""/>
        </g>
        <g>
            <path fill="none" stroke="#000000" paint-order="fill stroke markers" d=" M 10 219 L 218.69140625 219"
                  stroke-miterlimit="10" stroke-dasharray=""/>
        </g>
        <g>
            <path fill="none" stroke="#000000" paint-order="fill stroke markers" d=" M 10 229 L 218.69140625 229"
                  stroke-miterlimit="10" stroke-dasharray=""/>
        </g>
        <g>
            <g>
                <path fill="none" stroke="none"/>
                <text fill="#000000" stroke="none" font-family="Arial" font-size="13px" font-style="normal"
                      font-weight="bold" text-decoration="undefined" x="424.345703125" y="557.5" text-anchor="middle"
                      dominant-baseline="central" transform="matrix(1 0 0 1 -310 -350)">Girokonto
                </text>
            </g>
        </g>
        <g>
            <g>
                <path fill="none" stroke="none"/>
                <text fill="#000000" stroke="none" font-family="Arial" font-size="13px" font-style="normal"
                      font-weight="normal" text-decoration="undefined" x="325" y="590.5" text-anchor="start"
                      dominant-baseline="central" transform="matrix(1 0 0 1 -310 -350)">#pruefeAbheben(double): boolean
                </text>
            </g>
        </g>
        <g>
            <rect fill="#C0C0C0" stroke="none" x="719" y="551" width="207.69140625" height="58"
                  transform="matrix(1 0 0 1 -310 -350)" fill-opacity="0.2"/>
        </g>
        <g>
            <rect fill="#ffffff" stroke="none" x="712" y="544" width="207.69140625" height="58"
                  transform="matrix(1 0 0 1 -310 -350)"/>
        </g>
        <g>
            <path fill="none" stroke="#000000" paint-order="fill stroke markers"
                  d=" M 402 194 L 609.69140625 194 L 609.69140625 252 L 402 252 L 402 194 Z Z" stroke-miterlimit="10"
                  stroke-dasharray=""/>
        </g>
        <g>
            <path fill="none" stroke="#000000" paint-order="fill stroke markers" d=" M 402 219 L 610.69140625 219"
                  stroke-miterlimit="10" stroke-dasharray=""/>
        </g>
        <g>
            <path fill="none" stroke="#000000" paint-order="fill stroke markers" d=" M 402 229 L 610.69140625 229"
                  stroke-miterlimit="10" stroke-dasharray=""/>
        </g>
        <g>
            <g>
                <path fill="none" stroke="none"/>
                <text fill="#000000" stroke="none" font-family="Arial" font-size="13px" font-style="normal"
                      font-weight="bold" text-decoration="undefined" x="816.345703125" y="557.5" text-anchor="middle"
                      dominant-baseline="central" transform="matrix(1 0 0 1 -310 -350)">Sparbuch
                </text>
            </g>
        </g>
        <g>
            <g>
                <path fill="none" stroke="none"/>
                <text fill="#000000" stroke="none" font-family="Arial" font-size="13px" font-style="normal"
                      font-weight="normal" text-decoration="undefined" x="717" y="590.5" text-anchor="start"
                      dominant-baseline="central" transform="matrix(1 0 0 1 -310 -350)">#pruefeAbheben(double): boolean
                </text>
            </g>
        </g>
        <g>
            <path fill="none" stroke="#000000" paint-order="fill stroke markers" d=" M 469 193 L 346 91"
                  stroke-miterlimit="10" stroke-dasharray=""/>
        </g>
        <g>
            <path fill="#FFFFFF" stroke="none" paint-order="stroke fill markers"
                  d=" M 367.0197720958122 97.49378018107456 L 346 91 L 356.2714273863719 110.45501938951713"/>
        </g>
        <g>
            <path fill="none" stroke="#000000" paint-order="fill stroke markers"
                  d=" M 367.0197720958122 97.49378018107456 L 346 91 L 356.2714273863719 110.45501938951713 L 367.0197720958122 97.49378018107456"
                  stroke-miterlimit="10" stroke-dasharray=""/>
        </g>
        <g>
            <path fill="none" stroke="#000000" paint-order="fill stroke markers" d=" M 145 193 L 253 91"
                  stroke-miterlimit="10" stroke-dasharray=""/>
        </g>
        <g>
            <path fill="#FFFFFF" stroke="none" paint-order="stroke fill markers"
                  d=" M 244.0039113342582 111.07661297923812 L 253 91 L 232.4424955194214 98.83511388117563"/>
        </g>
        <g>
            <path fill="none" stroke="#000000" paint-order="fill stroke markers"
                  d=" M 244.0039113342582 111.07661297923812 L 253 91 L 232.4424955194214 98.83511388117563 L 244.0039113342582 111.07661297923812"
                  stroke-miterlimit="10" stroke-dasharray=""/>
        </g>
    </g>
</svg>
